<?xml version="1.0" encoding="UTF-8" standalone="no"?>
<!DOCTYPE svg PUBLIC "-//W3C//DTD SVG 1.1//EN" "http://www.w3.org/Graphics/SVG/1.1/DTD/svg11.dtd">
<svg width="100%" height="100%" viewBox="0 0 80 80" version="1.1" xmlns="http://www.w3.org/2000/svg" xmlns:xlink="http://www.w3.org/1999/xlink" xml:space="preserve" xmlns:serif="http://www.serif.com/" style="fill-rule:evenodd;clip-rule:evenodd;stroke-linejoin:round;stroke-miterlimit:2;">
    <g id="页面-1">
        <g id="矿池logo">
            <g id="BTC.com">
                <g id="编组">
                    <path id="Fill-1" d="M18,80L62,80C71.941,80 80,71.941 80,62L80,18C80,8.059 71.941,0 62,0L18,0C8.059,0 -0,8.059 0,18L0,62C-0,71.941 8.059,80 18,80Z" style="fill:rgb(64,64,64);"/>
                    <g transform="matrix(1,0,0,1,10.0001,24.6292)">
                        <path id="Fill-2" d="M33.855,30.194L33.855,30.161C33.855,27.568 35.976,25.396 38.89,25.396C41.803,25.396 43.907,27.534 43.907,30.127L43.907,30.161C43.907,32.754 41.786,34.926 38.856,34.926C35.959,34.926 33.855,32.788 33.855,30.194M40.809,30.194L40.809,30.161C40.809,29.033 39.984,28.09 38.856,28.09C37.694,28.09 36.954,29.016 36.954,30.127L36.954,30.161C36.954,31.272 37.762,32.215 38.89,32.215C40.052,32.215 40.809,31.289 40.809,30.194" style="fill:rgb(158,158,158);"/>
                        <path id="Fill-4" d="M31.232,31.289C30.744,31.879 30.256,32.232 29.481,32.232C28.404,32.232 27.663,31.339 27.663,30.161L27.663,30.127C27.663,29.016 28.42,28.09 29.464,28.09C29.858,28.09 30.177,28.191 30.458,28.37L30.458,28.367C30.94,28.723 31.761,28.602 32.059,28.379L33.321,27.433C32.546,26.221 31.3,25.413 29.431,25.413C26.552,25.413 24.565,27.584 24.565,30.161L24.565,30.195C24.565,32.771 26.569,34.926 29.33,34.926C31.317,34.926 32.529,34.084 33.371,32.838L31.232,31.289Z" style="fill:rgb(158,158,158);"/>
                        <path id="Fill-6" d="M56.885,25.396C55.555,25.396 54.628,25.968 53.837,26.878C53.349,25.935 52.423,25.396 51.21,25.396C49.931,25.396 49.088,26.086 48.5,26.844L48.5,25.598L46.481,25.598C45.829,25.598 45.3,26.126 45.3,26.778L45.3,34.707L47.315,34.707C47.967,34.707 48.496,34.178 48.496,33.526L48.5,29.756C48.5,28.763 49.038,28.225 49.796,28.225C50.554,28.225 51.059,28.763 51.059,29.756L51.059,34.707L53.06,34.707C53.713,34.707 54.241,34.178 54.241,33.526L54.241,29.756C54.241,28.763 54.797,28.225 55.555,28.225C56.312,28.225 56.8,28.763 56.8,29.756L56.8,34.707L58.805,34.707C59.458,34.707 59.987,34.178 59.987,33.526L60,28.73C60,26.608 58.821,25.396 56.885,25.396" style="fill:rgb(158,158,158);"/>
                        <path id="Fill-8" d="M23.582,33.065C23.582,34.093 22.749,34.926 21.722,34.926C20.694,34.926 19.861,34.093 19.861,33.065C19.861,32.037 20.694,31.204 21.722,31.204C22.749,31.204 23.582,32.037 23.582,33.065" style="fill:rgb(158,158,158);"/>
                        <path id="Fill-10" d="M19.966,2.533L19.966,5.607L26.329,5.607L26.329,21.751L30.085,21.751C31.256,21.751 32.216,20.812 32.24,19.647L32.24,5.607L36.489,5.607C37.66,5.607 38.608,4.669 38.632,3.503L38.632,0.429L22.11,0.429C20.939,0.429 19.99,1.368 19.966,2.533" style="fill:white;"/>
                        <path id="Fill-12" d="M55.554,14.193C54.276,15.751 52.964,16.783 50.741,16.783C47.757,16.783 45.654,14.286 45.654,11.088L45.654,11.026C45.654,7.921 47.757,5.363 50.741,5.363C51.97,5.363 52.966,5.729 53.831,6.346L53.832,6.344C55.084,7.248 56.053,7.356 56.989,6.632L59.846,4.42C57.962,1.83 55.154,0 50.802,0C44.346,0 39.593,4.874 39.593,11.088L39.593,11.148C39.593,17.516 44.491,22.179 50.588,22.179C55.28,22.179 57.991,20.134 60,17.363L55.554,14.193Z" style="fill:white;"/>
                        <path id="Fill-14" d="M14.831,10.602C16.718,9.78 18.121,8.318 18.121,5.85L18.121,5.789C18.121,4.327 17.6,3.199 16.75,2.315C15.568,1.167 13.817,0.506 11.367,0.436L11.367,0.429L0,0.429L0,19.607C0,20.778 0.938,21.726 2.103,21.75L2.185,21.75L2.185,21.745L11.367,21.745C16.227,21.638 19.064,19.437 19.064,15.872L19.064,15.812C19.064,12.918 17.418,11.453 14.831,10.602ZM5.755,5.177L9.621,5.177C11.359,5.177 12.301,5.818 12.301,7.007L12.301,7.067C12.301,8.318 11.269,8.927 9.468,8.927L5.755,8.927L5.755,5.177ZM13.155,15.047C13.155,16.297 12.151,16.998 10.325,16.998L5.755,16.998L5.755,13.071L10.261,13.071C12.24,13.071 13.155,13.828 13.155,14.986L13.155,15.047Z" style="fill:white;"/>
                    </g>
                </g>
            </g>
        </g>
    </g>
</svg>
