<?xml version="1.0" encoding="UTF-8" standalone="no"?>
<!DOCTYPE svg PUBLIC "-//W3C//DTD SVG 1.1//EN" "http://www.w3.org/Graphics/SVG/1.1/DTD/svg11.dtd">
<svg width="100%" height="100%" viewBox="0 0 80 70" version="1.1" xmlns="http://www.w3.org/2000/svg" xmlns:xlink="http://www.w3.org/1999/xlink" xml:space="preserve" xmlns:serif="http://www.serif.com/" style="fill-rule:evenodd;clip-rule:evenodd;stroke-linejoin:round;stroke-miterlimit:2;">
    <g id="页面-1">
        <g id="矿池logo">
            <g id="Luxor">
                <path id="路径" d="M17.235,34.282C19.792,30.037 26.152,31.059 27.282,35.897L33.653,63.157C34.469,66.65 31.85,69.999 28.301,69.999L5.508,69.999C1.216,69.999 -1.421,65.249 0.812,61.542L17.235,34.282Z" style="fill:rgb(196,196,196);fill-rule:nonzero;"/>
                <path id="路径1" serif:id="路径" d="M17.235,34.282C19.792,30.037 26.152,31.059 27.282,35.897L33.653,63.157C34.469,66.65 31.85,69.999 28.301,69.999L5.508,69.999C1.216,69.999 -1.421,65.249 0.812,61.542L17.235,34.282Z" style="fill:url(#_Radial1);fill-rule:nonzero;"/>
                <path id="路径2" serif:id="路径" d="M30.577,6.786C29.214,0.767 37.225,-2.633 40.6,2.531L79.089,61.433C81.495,65.115 78.856,70 74.46,70L49.311,70C46.727,70 44.488,68.21 43.917,65.688L30.577,6.786Z" style="fill:rgb(196,196,196);fill-rule:nonzero;"/>
                <path id="路径3" serif:id="路径" d="M30.577,6.786C29.214,0.767 37.225,-2.633 40.6,2.531L79.089,61.433C81.495,65.115 78.856,70 74.46,70L49.311,70C46.727,70 44.488,68.21 43.917,65.688L30.577,6.786Z" style="fill:url(#_Radial2);fill-rule:nonzero;"/>
            </g>
        </g>
    </g>
    <defs>
        <radialGradient id="_Radial1" cx="0" cy="0" r="1" gradientUnits="userSpaceOnUse" gradientTransform="matrix(44.1567,0,0,44.1567,43.6756,31.6488)"><stop offset="0" style="stop-color:rgb(181,181,181);stop-opacity:1"/><stop offset="1" style="stop-color:white;stop-opacity:0"/></radialGradient>
        <radialGradient id="_Radial2" cx="0" cy="0" r="1" gradientUnits="userSpaceOnUse" gradientTransform="matrix(94.0991,0,0,94.0991,30.1182,-1.90347e-06)"><stop offset="0" style="stop-color:rgb(181,181,181);stop-opacity:1"/><stop offset="1" style="stop-color:white;stop-opacity:0"/></radialGradient>
    </defs>
</svg>
