<?xml version="1.0" encoding="UTF-8" standalone="no"?>
<!DOCTYPE svg PUBLIC "-//W3C//DTD SVG 1.1//EN" "http://www.w3.org/Graphics/SVG/1.1/DTD/svg11.dtd">
<svg width="100%" height="100%" viewBox="0 0 256 256" version="1.1" xmlns="http://www.w3.org/2000/svg" xmlns:xlink="http://www.w3.org/1999/xlink" xml:space="preserve" xmlns:serif="http://www.serif.com/" style="fill-rule:evenodd;clip-rule:evenodd;stroke-linejoin:round;stroke-miterlimit:2;">
    <path d="M0,3.601C0,2.343 0,1.714 0.245,1.234C0.46,0.811 0.804,0.468 1.226,0.253C1.706,0.008 2.335,0.008 3.593,0.008L252.407,0.008C253.665,0.008 254.294,0.008 254.774,0.253C255.196,0.468 255.54,0.811 255.755,1.234C256,1.714 256,2.343 256,3.601L256,252.415C256,253.672 256,254.301 255.755,254.782C255.54,255.204 255.196,255.548 254.774,255.763C254.294,256.008 253.665,256.008 252.407,256.008L3.593,256.008C2.335,256.008 1.706,256.008 1.226,255.763C0.804,255.548 0.46,255.204 0.245,254.782C0,254.301 0,253.672 0,252.415L0,3.601Z" style="fill:rgb(37,37,37);fill-rule:nonzero;"/>
    <path d="M59.285,48.063C58.789,48.063 58.387,48.465 58.387,48.961L58.387,159.445C58.387,159.941 58.789,160.343 59.285,160.343L80.075,160.343C80.571,160.343 80.973,159.941 80.973,159.445L80.973,82.389L84.634,82.389L117.649,159.797C117.79,160.128 118.116,160.343 118.475,160.343L137.809,160.343C138.169,160.343 138.494,160.128 138.635,159.797L171.651,82.389L175.311,82.389L175.311,159.445C175.311,159.941 175.714,160.343 176.21,160.343L197,160.343C197.496,160.343 197.898,159.941 197.898,159.445L197.898,48.961C197.898,48.465 197.496,48.063 197,48.063L164.29,48.063C163.931,48.063 163.605,48.277 163.464,48.608L129.972,127.14L126.312,127.14L92.82,48.608C92.679,48.277 92.354,48.063 91.994,48.063L59.285,48.063Z" style="fill:rgb(236,236,236);fill-rule:nonzero;"/>
    <path d="M58.387,194.926C58.387,194.43 58.789,194.027 59.285,194.027L196.999,194.027C197.496,194.027 197.898,194.43 197.898,194.926L197.898,215.585C197.898,216.081 197.496,216.484 196.999,216.484L59.285,216.484C58.789,216.484 58.387,216.081 58.387,215.585L58.387,194.926Z" style="fill:rgb(184,184,184);fill-rule:nonzero;"/>
</svg>
