<?xml version="1.0" encoding="UTF-8" standalone="no"?>
<!DOCTYPE svg PUBLIC "-//W3C//DTD SVG 1.1//EN" "http://www.w3.org/Graphics/SVG/1.1/DTD/svg11.dtd">
<svg width="100%" height="100%" viewBox="0 0 72 72" version="1.1" xmlns="http://www.w3.org/2000/svg" xmlns:xlink="http://www.w3.org/1999/xlink" xml:space="preserve" xmlns:serif="http://www.serif.com/" style="fill-rule:evenodd;clip-rule:evenodd;stroke-linejoin:round;stroke-miterlimit:2;">
    <g transform="matrix(1,0,0,1,56.25,5.8125)">
        <path d="M0,0C8.136,6.472 13.736,13.688 15.75,24.188C16.826,36.063 13.883,45.69 6.328,54.926C0.403,61.514 -8.035,65.624 -16.879,66.426C-28.754,66.726 -37.984,63.065 -46.813,55.125C-54.192,47.565 -56.623,37.664 -56.535,27.426C-55.647,17.34 -50.519,8.829 -43.383,1.863C-30.175,-8.514 -14.134,-7.882 0,0Z" style="fill:rgb(108,108,108);fill-rule:nonzero;"/>
    </g>
    <g transform="matrix(1,0,0,1,56,24)">
        <path d="M0,0C0.044,3.184 0.057,6.362 0.016,9.547C-0.055,12.848 -0.055,12.848 0.234,15.516C0.33,18.171 0.171,19.589 -1,22C-5.037,25.816 -9.428,28.863 -14,32C-15.679,33.318 -17.351,34.645 -19,36C-22.978,34.257 -26.316,31.677 -29.75,29.063C-30.352,28.62 -30.954,28.177 -31.574,27.721C-33.108,26.554 -34.561,25.283 -36,24L-36,21C-31.497,21.511 -29.125,23.175 -25.688,26.063C-24.804,26.796 -23.921,27.529 -23.012,28.285C-22.348,28.851 -21.684,29.417 -21,30C-14.947,27.098 -9.418,24.099 -5,19C-3.723,14.877 -3.919,10.744 -4.09,6.477C-4,3 -4,3 -2.566,1.023C-1,0 -1,0 0,0Z" style="fill:rgb(245,245,245);fill-rule:nonzero;"/>
    </g>
    <g transform="matrix(1,0,0,1,38.2188,12.5)">
        <path d="M0,0C0.918,0.495 1.836,0.99 2.781,1.5C3.841,1.998 4.9,2.495 5.992,3.008C7.036,3.541 8.08,4.075 9.156,4.625C10.216,5.164 11.275,5.703 12.367,6.258C13.164,6.668 13.96,7.078 14.781,7.5C14.451,8.49 14.121,9.48 13.781,10.5C10.265,10.046 7.547,8.932 4.406,7.375C0.038,5.411 -2.507,5.095 -7.219,6.5C-10.64,8.04 -13.905,9.729 -17.219,11.5C-17.549,17.11 -17.879,22.72 -18.219,28.5C-20.199,29.49 -20.199,29.49 -22.219,30.5L-22.219,9.5C-19.208,7.809 -16.196,6.118 -13.094,4.375C-11.688,3.565 -11.688,3.565 -10.253,2.738C-4.055,-0.63 -4.055,-0.63 0,0Z" style="fill:rgb(243,243,243);fill-rule:nonzero;"/>
    </g>
    <g transform="matrix(1,0,0,1,38.8906,24.4258)">
        <path d="M0,0C2.5,1.039 4.8,2.164 7.109,3.574C6.779,4.894 6.449,6.214 6.109,7.574C5.243,7.244 4.377,6.914 3.484,6.574C0.152,5.587 -2.442,5.41 -5.891,5.574L-5.891,7.574C-4.901,7.904 -3.911,8.234 -2.891,8.574C-3.221,9.564 -3.551,10.554 -3.891,11.574C-7.759,10.457 -10.18,9.545 -12.891,6.574C-4.882,-0.719 -4.882,-0.719 0,0Z" style="fill:rgb(242,242,242);fill-rule:nonzero;"/>
    </g>
    <g transform="matrix(1,0,0,1,37,34)">
        <path d="M0,0C3.868,1.118 6.289,2.029 9,5C1.204,10.977 1.204,10.977 -3.25,11.063C-6.074,9.971 -8.494,8.695 -11,7C-10.67,5.68 -10.34,4.36 -10,3C-8.886,3.464 -8.886,3.464 -7.75,3.938C-5.477,4.816 -3.397,5.587 -1,6C-0.34,5.67 0.32,5.34 1,5C0.34,3.68 -0.32,2.36 -1,1C-0.67,0.67 -0.34,0.34 0,0Z" style="fill:rgb(245,245,245);fill-rule:nonzero;"/>
    </g>
</svg>
