<?xml version="1.0" encoding="UTF-8" standalone="no"?>
<!DOCTYPE svg PUBLIC "-//W3C//DTD SVG 1.1//EN" "http://www.w3.org/Graphics/SVG/1.1/DTD/svg11.dtd">
<svg width="100%" height="100%" viewBox="0 0 135 135" version="1.1" xmlns="http://www.w3.org/2000/svg" xmlns:xlink="http://www.w3.org/1999/xlink" xml:space="preserve" xmlns:serif="http://www.serif.com/" style="fill-rule:evenodd;clip-rule:evenodd;stroke-linejoin:round;stroke-miterlimit:2;">
    <path d="M133.549,29.107L133.549,106.036C133.549,121.696 120.885,134.333 105.252,134.333L28.297,134.333C12.69,134.359 0,121.696 0,106.036L0,29.107C0,13.501 12.69,0.811 28.297,0.811L105.226,0.811C117.023,0.811 127.112,8.01 131.394,18.256C132.787,21.593 133.549,25.245 133.549,29.107Z" style="fill:rgb(202,202,202);fill-rule:nonzero;"/>
    <path d="M133.549,29.107L133.549,101.754C127.138,107.849 119.282,111.107 114.711,111.107C112.504,111.107 110.454,109.373 108.694,106.115L92.457,121.906C89.041,125.216 88.227,130.234 90.329,134.359L77.534,134.359C75.905,126.871 78.138,118.832 83.971,113.157L101.889,95.711L77.901,100.256C75.589,100.65 73.435,101.885 71.806,103.646L62.794,113.498C60.613,115.889 56.593,116.047 54.176,113.866C51.733,111.606 51.575,107.744 53.835,105.248L62.899,95.396C66.262,91.744 70.807,89.221 75.668,88.275L105.331,82.653C105.436,81.812 105.541,80.945 105.673,80.104L85.994,75.454C76.483,73.221 68.233,67.073 63.372,58.586L50.419,35.86C48.764,32.917 49.762,29.212 52.679,27.557C54.097,26.769 55.726,26.532 57.303,26.979C58.879,27.373 60.167,28.424 60.955,29.817L73.934,52.543C77.087,58.087 82.525,62.133 88.779,63.631L107.118,67.94L89.882,51.86C82.158,44.688 77.77,34.52 77.928,23.931L78.19,0.811L90.355,0.811L90.092,24.063C89.987,31.235 92.93,38.119 98.158,42.98L114.737,58.429C117.601,54.724 120.99,52.228 124.931,50.888C120.386,47.446 117.627,42.034 117.627,36.149C117.627,27.583 123.486,20.358 131.421,18.256C132.787,21.593 133.549,25.245 133.549,29.107Z" style="fill:rgb(25,25,25);fill-rule:nonzero;"/>
</svg>
