<?xml version="1.0" encoding="UTF-8" standalone="no"?>
<!DOCTYPE svg PUBLIC "-//W3C//DTD SVG 1.1//EN" "http://www.w3.org/Graphics/SVG/1.1/DTD/svg11.dtd">
<svg width="100%" height="100%" viewBox="0 0 80 80" version="1.1" xmlns="http://www.w3.org/2000/svg" xmlns:xlink="http://www.w3.org/1999/xlink" xml:space="preserve" xmlns:serif="http://www.serif.com/" style="fill-rule:evenodd;clip-rule:evenodd;stroke-linejoin:round;stroke-miterlimit:2;">
    <g id="B-Copy-13" transform="matrix(1,0,0,1,1,0)">
        <g id="页面-1">
            <g id="画板">
                <g id="ViaBTC">
                    <g id="B-Copy-131" serif:id="B-Copy-13">
                        <path id="Shape_4_" d="M62.072,17.842L61.813,18.158L61.554,17.871C56.547,12.633 50.043,9.295 42.849,8.403L42.532,8.374L42.532,0L42.906,0.029C53.151,1.094 62.388,6.014 68.95,13.755L69.381,14.273L68.719,14.331C66.101,14.532 63.712,15.799 62.072,17.842Z" style="fill:rgb(185,185,185);fill-rule:nonzero;"/>
                        <path id="Shape_5_" d="M76.576,30.072L77.007,29.583L77.151,30.216C77.813,32.978 78.158,35.885 78.158,38.964C78.158,45.007 76.719,50.993 74.014,56.374L73.842,56.719L66.993,51.914L67.108,51.655C68.921,47.799 69.899,43.424 69.899,38.964C69.899,37.18 69.755,35.453 69.439,33.698L69.381,33.324L69.784,33.295C72.46,33.151 74.878,32 76.576,30.072Z" style="fill:rgb(185,185,185);fill-rule:nonzero;"/>
                        <path id="Shape_6_" d="M8.288,38.964C8.288,43.424 9.237,47.799 11.079,51.655L11.194,51.914L4.317,56.719L4.144,56.374C1.41,51.079 0,45.18 0,38.964C0,36.288 0.288,33.612 0.835,30.906L0.95,30.302L1.41,30.705C3.165,32.317 5.554,33.266 7.942,33.266L8.806,33.266L8.748,33.669C8.432,35.453 8.288,37.18 8.288,38.964Z" style="fill:rgb(185,185,185);fill-rule:nonzero;"/>
                        <path id="Shape_7_" d="M16.259,18.302L15.971,18.619L15.712,18.273C14.216,16.201 11.942,14.734 9.41,14.302L8.806,14.216L9.18,13.755C15.683,5.986 25.036,1.007 35.252,0.029L35.626,0L35.626,8.374L35.309,8.403C27.971,9.295 21.151,12.863 16.259,18.302Z" style="fill:rgb(185,185,185);fill-rule:nonzero;"/>
                        <path id="Shape_8_" d="M14.763,57.871L14.964,58.129C18.906,63.079 24.288,66.705 30.273,68.489L30.647,68.604L30.475,68.978C29.871,70.273 29.525,71.741 29.525,73.151C29.525,74.273 29.727,75.367 30.101,76.46L30.331,77.065L29.698,76.921C21.065,74.791 13.468,69.813 8.173,62.906L7.942,62.619L14.763,57.871Z" style="fill:rgb(185,185,185);fill-rule:nonzero;"/>
                        <path id="Shape_9_" d="M47.655,68.978L47.482,68.604L47.856,68.489C53.871,66.705 59.223,63.079 63.165,58.129L63.367,57.871L70.158,62.59L69.928,62.878C64.576,69.784 56.95,74.791 48.403,76.892L47.77,77.036L48,76.432C48.374,75.338 48.576,74.245 48.576,73.122C48.604,71.741 48.259,70.273 47.655,68.978Z" style="fill:rgb(185,185,185);fill-rule:nonzero;"/>
                        <path id="Combined-Shape" d="M69.468,30.619C65.698,30.619 62.619,27.568 62.619,23.77C62.619,19.971 65.669,16.921 69.468,16.921C73.237,16.921 76.317,19.971 76.317,23.77C76.317,27.568 73.237,30.619 69.468,30.619ZM7.942,30.619C4.173,30.619 1.094,27.568 1.094,23.77C1.094,19.971 4.144,16.921 7.942,16.921C11.741,16.921 14.791,19.971 14.791,23.77C14.791,27.568 11.712,30.619 7.942,30.619ZM39.079,80C35.309,80 32.23,76.95 32.23,73.151C32.23,69.353 35.309,66.302 39.079,66.302C42.849,66.302 45.928,69.353 45.928,73.151C45.928,76.95 42.849,80 39.079,80Z" style="fill:rgb(185,185,185);fill-rule:nonzero;"/>
                        <path id="Shape_10_" d="M48.662,32.432C47.453,37.381 39.856,34.849 37.353,34.245L39.568,25.583C41.986,26.129 49.871,27.338 48.662,32.432ZM47.281,46.504C45.899,51.971 36.806,49.007 33.842,48.259L36.259,38.676C39.165,39.424 48.662,40.863 47.281,46.504ZM48.518,22.475L50.273,15.338L45.957,14.187L44.201,21.18C43.05,20.863 41.928,20.662 40.719,20.345L42.475,13.353L38.158,12.288L36.345,19.424C35.424,19.194 34.446,18.964 33.525,18.82L27.511,17.295L26.36,21.928L29.554,22.676C31.309,23.137 31.597,24.259 31.597,25.18L29.554,33.295C29.698,33.381 29.871,33.381 30.014,33.439C29.871,33.353 29.698,33.353 29.554,33.295L26.705,44.806C26.475,45.324 25.957,46.187 24.719,45.871C24.806,45.957 21.525,45.122 21.525,45.122L19.309,50.129L24.921,51.511C25.986,51.827 26.964,52.029 28.029,52.345L26.216,59.568L30.532,60.633L32.345,53.496C33.496,53.813 34.705,54.101 35.827,54.417L34.014,61.468L38.331,62.532L40.144,55.309C47.597,56.691 53.122,56.144 55.482,49.468C57.381,44.086 55.396,40.892 51.453,38.906C54.417,38.302 56.547,36.403 57.151,32.518C57.986,27.194 53.986,24.374 48.518,22.475Z" style="fill:rgb(199,199,199);fill-rule:nonzero;"/>
                    </g>
                </g>
            </g>
        </g>
    </g>
</svg>
